<?xml version="1.0" standalone="no"?>
<!DOCTYPE svg PUBLIC "-//W3C//DTD SVG 20010904//EN"
 "http://www.w3.org/TR/2001/REC-SVG-20010904/DTD/svg10.dtd">
<svg version="1.0" xmlns="http://www.w3.org/2000/svg"
 width="1000.000000pt" height="1000.000000pt" viewBox="0 0 1000.000000 1000.000000"
 preserveAspectRatio="xMidYMid meet">
<metadata>
Created by potrace 1.16, written by Peter Selinger 2001-2019
</metadata>
<g transform="translate(0.000000,1000.000000) scale(0.100000,-0.100000)"
fill="#000000" stroke="none">
<path d="M3943 9986 c-13 -6 -23 -14 -23 -18 0 -5 -9 -8 -20 -8 -11 0 -20 -4
-20 -10 0 -5 -6 -10 -14 -10 -7 0 -27 -14 -45 -30 -17 -17 -31 -27 -31 -23 0
4 -9 -3 -20 -15 -11 -12 -20 -24 -20 -27 0 -3 -5 -11 -10 -18 -41 -49 -52 -65
-69 -101 -30 -67 -39 -106 -46 -203 -4 -51 -11 -93 -16 -93 -5 0 -9 -7 -9 -15
0 -18 -52 -75 -68 -75 -6 0 -12 -6 -14 -12 -4 -10 -55 -15 -189 -19 -101 -4
-204 -12 -229 -18 -42 -11 -89 -30 -100 -41 -3 -3 -22 -14 -42 -24 -58 -29
-106 -87 -156 -186 -25 -52 -27 -63 -27 -186 0 -81 4 -136 11 -145 6 -8 14
-26 18 -41 8 -35 105 -157 136 -171 8 -4 33 -18 55 -32 22 -13 50 -24 63 -25
12 0 22 -4 22 -9 0 -5 24 -12 53 -16 86 -12 1959 -17 1971 -5 5 5 29 10 52 10
24 0 45 4 48 9 3 4 19 11 35 14 43 9 179 105 181 129 0 3 10 17 21 30 23 26
59 112 59 141 0 9 5 17 10 17 6 0 10 37 10 90 0 53 -4 90 -10 90 -5 0 -10 15
-10 34 0 19 -4 38 -10 41 -5 3 -10 14 -10 24 0 10 -13 37 -30 59 -16 23 -30
44 -30 48 0 12 -104 94 -119 94 -6 0 -11 5 -11 10 0 6 -9 10 -19 10 -11 0 -21
4 -23 8 -8 20 -168 42 -302 42 -110 0 -145 4 -174 17 -64 30 -90 69 -103 152
-23 154 -32 197 -40 206 -5 5 -9 17 -9 27 0 10 -4 18 -8 18 -4 0 -14 16 -21
35 -19 55 -126 154 -212 198 l-74 37 -170 -1 c-102 -1 -179 -6 -192 -13z m305
-330 c52 -33 81 -90 82 -159 0 -63 -21 -107 -73 -148 -39 -32 -47 -34 -116
-34 -51 0 -76 4 -78 13 -3 6 -11 12 -19 12 -8 0 -14 4 -14 8 0 5 -10 14 -23
21 -29 16 -57 80 -57 131 0 153 167 240 298 156z"/>
<path d="M1266 9003 c-30 -8 -96 -52 -96 -64 0 -5 -4 -8 -8 -5 -8 5 -112 -86
-112 -98 0 -3 -13 -25 -30 -48 -16 -22 -30 -47 -30 -55 0 -7 -4 -13 -10 -13
-5 0 -10 -9 -10 -20 0 -11 -4 -20 -10 -20 -5 0 -12 -17 -15 -37 -4 -21 -10
-47 -15 -58 -30 -73 -31 -203 -27 -3615 3 -1884 8 -3453 12 -3488 4 -34 11
-62 16 -62 5 0 9 -10 9 -22 0 -13 7 -36 15 -52 8 -15 15 -35 15 -42 0 -8 4
-14 9 -14 5 0 14 -13 20 -28 7 -16 25 -43 42 -61 16 -18 29 -34 29 -37 0 -8
53 -53 90 -76 19 -12 37 -25 40 -28 3 -3 25 -14 50 -24 25 -10 54 -23 65 -30
15 -8 510 -12 1908 -14 l1887 -2 0 29 c0 16 -3 31 -8 33 -7 3 -35 88 -64 193
-6 22 -15 44 -20 49 -4 6 -8 27 -8 49 0 23 -4 36 -10 32 -6 -3 -10 4 -10 17 0
13 -5 66 -11 118 -6 52 -14 122 -17 155 l-7 60 -1647 3 -1648 2 0 2840 0 2840
2480 0 2480 0 2 -1672 3 -1673 85 3 c46 1 89 7 94 12 6 6 28 10 51 10 23 0 46
5 52 11 7 7 97 13 239 17 l229 7 0 2212 c0 1756 -3 2215 -12 2225 -7 6 -13 22
-13 35 0 13 -4 23 -10 23 -5 0 -10 11 -10 24 0 13 -3 26 -7 28 -5 2 -17 21
-28 43 -36 72 -146 170 -240 215 -47 22 -99 43 -117 47 -18 3 -36 11 -40 17
-5 8 -178 12 -572 14 l-565 3 1 -118 c1 -68 -4 -141 -11 -173 -20 -85 -47
-161 -54 -153 -4 3 -7 -1 -7 -10 0 -22 -31 -76 -57 -102 -13 -12 -23 -27 -23
-32 0 -22 -180 -173 -207 -173 -7 0 -13 -4 -13 -10 0 -5 -9 -10 -20 -10 -11 0
-20 -4 -20 -9 0 -5 -17 -12 -37 -16 -21 -4 -44 -12 -52 -18 -21 -18 -2225 -17
-2243 1 -6 6 -19 12 -27 12 -9 0 -29 7 -45 15 -15 8 -35 15 -42 15 -8 0 -14 4
-14 9 0 5 -10 13 -22 17 -13 4 -36 16 -51 28 -40 30 -147 133 -147 141 0 4
-13 23 -30 42 -16 18 -30 40 -30 48 0 8 -4 15 -10 15 -5 0 -10 8 -10 18 0 10
-5 23 -11 29 -15 15 -40 108 -50 188 -11 80 -11 86 -3 178 l6 67 -624 -1
c-342 -1 -632 -4 -642 -6z"/>
<path d="M3082 7046 c-40 -15 -50 -23 -132 -116 -79 -88 -160 -178 -260 -288
-41 -45 -77 -88 -79 -95 -6 -17 -29 -38 -33 -29 -4 9 -73 69 -118 102 -52 39
-95 74 -98 83 -2 4 -15 7 -28 7 -13 0 -24 5 -24 10 0 6 -13 10 -30 10 -16 0
-30 -4 -30 -10 0 -5 -11 -10 -25 -10 -14 0 -25 -4 -25 -10 0 -5 -6 -10 -14
-10 -31 0 -56 -55 -56 -122 0 -71 7 -82 97 -154 26 -21 50 -41 53 -44 3 -3 25
-21 50 -40 25 -19 47 -38 48 -42 2 -4 9 -8 15 -8 7 0 30 -18 52 -40 22 -21 46
-39 53 -40 6 0 12 -4 12 -9 0 -12 56 -31 92 -31 64 0 97 23 193 136 81 95 97
113 153 169 28 29 52 56 52 60 0 3 6 12 13 19 6 7 39 43 72 80 33 37 82 90
108 119 27 29 57 70 68 91 20 42 26 116 9 116 -5 0 -10 7 -10 16 0 25 -54 71
-97 83 -21 6 -40 10 -43 10 -3 -1 -20 -7 -38 -13z"/>
<path d="M3570 6720 c0 -5 -5 -10 -10 -10 -6 0 -23 -11 -38 -25 l-27 -25 0
-159 c0 -158 0 -160 25 -180 14 -11 30 -25 35 -29 6 -5 24 -13 40 -17 37 -11
2326 -11 2378 -1 20 5 37 12 37 17 0 5 6 9 13 9 15 0 38 26 55 63 14 33 17
234 3 270 -6 14 -26 41 -46 61 l-36 36 -1214 0 c-803 0 -1215 -3 -1215 -10z"/>
<path d="M3038 5754 c-21 -13 -38 -28 -38 -32 0 -5 -21 -31 -46 -58 -25 -27
-67 -74 -92 -104 -26 -30 -58 -66 -72 -81 -14 -14 -42 -46 -64 -70 -21 -24
-62 -69 -91 -100 l-53 -56 -33 26 c-19 14 -40 31 -47 38 -8 7 -23 18 -35 25
-12 6 -30 22 -40 35 -10 12 -25 23 -33 23 -8 0 -14 4 -14 9 0 5 -16 16 -36 26
-40 19 -135 17 -142 -4 -2 -6 -10 -11 -17 -11 -28 0 -55 -56 -55 -115 0 -62
16 -102 51 -125 31 -21 93 -74 97 -82 2 -5 8 -8 14 -8 5 0 26 -16 46 -35 20
-19 40 -35 44 -35 4 0 20 -12 35 -28 37 -36 99 -82 112 -82 6 0 11 -4 11 -10
0 -14 96 -12 123 3 34 19 230 223 299 312 12 17 41 48 63 70 22 22 56 60 77
85 20 25 51 61 70 81 58 63 88 102 88 116 0 7 5 13 10 13 6 0 10 23 10 50 0
28 -4 50 -10 50 -5 0 -10 6 -10 14 0 7 -18 30 -40 50 -36 32 -46 36 -93 35
-38 0 -62 -7 -89 -25z"/>
<path d="M3594 5443 c-11 -2 -38 -19 -60 -38 l-39 -34 -3 -143 c-4 -157 8
-202 55 -214 13 -4 23 -10 23 -15 0 -5 508 -9 1211 -9 1198 0 1211 0 1239 20
16 11 38 36 50 55 20 32 21 46 18 158 -3 111 -6 127 -27 158 -47 69 46 64
-1261 65 -652 1 -1194 0 -1206 -3z"/>
<path d="M3073 4555 c-31 -13 -83 -61 -144 -134 -31 -37 -120 -137 -174 -196
-16 -18 -52 -59 -80 -90 -27 -32 -59 -68 -71 -81 l-20 -23 -27 25 c-14 13 -30
24 -35 24 -4 0 -21 14 -37 30 -16 17 -32 30 -37 30 -4 0 -25 16 -45 35 -20 19
-43 35 -50 35 -7 0 -13 5 -13 10 0 6 -28 10 -65 10 -60 0 -67 -2 -105 -37 -40
-37 -40 -38 -40 -108 1 -64 14 -105 34 -105 4 0 24 -16 44 -35 20 -19 40 -35
43 -35 4 0 20 -13 37 -28 16 -16 44 -39 62 -53 17 -13 38 -30 45 -36 8 -7 16
-13 19 -13 3 0 19 -13 36 -30 17 -16 36 -30 43 -30 7 0 19 -9 27 -20 12 -16
26 -20 77 -20 77 0 99 10 141 64 18 24 58 70 90 102 32 33 68 72 80 88 25 32
135 157 193 217 19 20 49 55 66 76 18 21 45 53 62 72 17 19 31 43 31 52 0 10
5 21 10 24 15 9 12 68 -5 102 -19 38 -42 59 -88 78 -44 18 -62 18 -104 0z"/>
<path d="M3615 4300 c4 -6 -6 -10 -22 -10 -17 0 -42 -13 -63 -31 l-35 -31 0
-157 c0 -155 0 -157 26 -181 53 -52 13 -50 909 -50 854 0 858 0 895 35 43 41
50 68 50 199 0 95 -3 130 -12 134 -7 2 -13 10 -13 17 0 24 -53 65 -82 65 -16
0 -28 5 -28 10 0 7 -279 10 -816 10 -541 0 -813 -3 -809 -10z"/>
<path d="M7140 3730 c-14 -4 -67 -8 -117 -9 -55 -1 -93 -5 -93 -11 0 -5 -17
-10 -37 -10 -21 -1 -56 -5 -78 -10 -22 -5 -65 -14 -95 -21 -30 -6 -73 -19 -95
-29 -22 -9 -51 -21 -65 -24 -68 -19 -315 -142 -348 -173 -7 -7 -17 -13 -21
-13 -4 0 -16 -8 -27 -17 -25 -22 -53 -40 -80 -52 -11 -5 -31 -23 -45 -40 -13
-17 -29 -31 -35 -31 -15 0 -221 -206 -251 -252 -14 -21 -30 -38 -34 -38 -5 0
-9 -7 -9 -15 0 -8 -4 -15 -8 -15 -4 0 -16 -15 -27 -32 -10 -18 -25 -39 -32
-46 -7 -7 -13 -20 -13 -28 0 -8 -4 -14 -10 -14 -5 0 -10 -7 -10 -15 0 -8 -4
-15 -9 -15 -5 0 -13 -10 -17 -22 -4 -13 -10 -25 -13 -28 -10 -7 -41 -76 -41
-89 0 -6 -4 -11 -9 -11 -5 0 -12 -13 -16 -30 -4 -16 -11 -32 -16 -35 -5 -4 -9
-15 -9 -26 0 -10 -3 -19 -8 -19 -4 0 -16 -28 -26 -62 -11 -35 -23 -68 -28 -74
-5 -7 -11 -35 -15 -63 -3 -28 -10 -51 -14 -51 -5 0 -9 -15 -9 -33 0 -18 -4
-37 -9 -42 -13 -15 -36 -226 -36 -335 0 -121 25 -400 36 -400 5 0 9 -18 9 -40
0 -22 4 -40 9 -40 5 0 12 -27 16 -60 4 -33 11 -60 16 -60 5 0 9 -7 9 -16 0
-24 33 -114 42 -114 5 0 8 -11 8 -25 0 -14 5 -25 10 -25 6 0 10 -8 10 -18 0
-26 76 -172 138 -265 29 -43 52 -81 52 -83 0 -3 10 -16 23 -29 12 -13 27 -30
32 -37 6 -7 20 -26 33 -42 12 -16 22 -25 23 -20 0 5 3 2 7 -8 10 -23 108 -125
173 -178 106 -88 190 -150 201 -150 5 0 18 -9 29 -19 11 -10 42 -30 67 -44 26
-14 68 -36 93 -50 25 -13 60 -28 77 -32 18 -3 32 -11 32 -16 0 -5 11 -9 25 -9
14 0 25 -3 25 -8 0 -11 90 -41 144 -48 25 -4 46 -11 46 -15 0 -5 18 -9 40 -9
22 0 40 -4 40 -10 0 -5 18 -10 39 -10 22 0 43 -5 46 -10 8 -14 642 -14 650 0
3 6 24 10 46 10 21 0 39 5 39 10 0 6 18 10 40 10 22 0 40 4 40 9 0 5 21 12 47
16 43 6 87 20 153 47 14 6 34 14 45 18 42 17 160 74 165 80 3 4 19 13 35 21
38 19 78 42 85 49 3 3 22 16 42 30 21 14 38 28 38 33 0 4 5 7 10 7 24 0 162
117 221 186 9 11 26 26 37 34 12 8 22 18 22 23 0 5 15 23 33 40 36 36 60 67
115 147 20 30 39 57 42 60 10 10 31 45 36 63 4 9 10 17 15 17 5 0 9 9 9 19 0
11 4 21 8 23 10 4 72 130 72 146 0 7 5 12 10 12 6 0 10 11 10 25 0 14 4 25 10
25 5 0 13 18 16 40 4 22 10 43 15 45 4 3 11 26 15 50 3 25 10 48 15 51 5 3 9
18 9 34 0 16 4 31 9 34 5 4 12 41 16 84 4 42 11 82 15 87 6 8 22 200 21 245
-6 145 -14 239 -21 255 -5 11 -12 55 -15 97 -4 43 -11 80 -16 84 -5 3 -9 21
-9 40 0 19 -4 34 -9 34 -5 0 -11 22 -15 50 -4 27 -11 52 -16 55 -6 3 -10 16
-10 29 0 12 -7 31 -15 42 -8 10 -15 29 -15 42 0 12 -4 22 -10 22 -5 0 -10 5
-10 11 0 18 -63 149 -72 149 -4 0 -8 9 -8 20 0 11 -4 20 -10 20 -5 0 -10 6
-10 14 0 8 -6 21 -13 28 -6 7 -21 30 -32 51 -11 20 -23 37 -27 37 -5 0 -8 5
-8 10 0 16 -154 203 -220 268 -19 18 -51 46 -70 60 -19 15 -44 36 -55 48 -32
33 -174 131 -258 177 -26 15 -58 33 -70 41 -12 7 -44 22 -72 32 -27 10 -52 20
-55 24 -9 9 -53 28 -107 45 -29 9 -55 20 -58 25 -2 4 -29 11 -60 15 -30 3 -57
10 -60 15 -3 5 -36 11 -73 15 -37 3 -76 10 -87 15 -11 5 -65 11 -120 14 -55 3
-127 8 -160 10 -33 3 -71 1 -85 -4z m1170 -1050 c0 -5 7 -10 15 -10 8 0 15 -4
15 -9 0 -5 8 -12 18 -15 27 -9 82 -62 82 -79 0 -9 7 -23 16 -31 24 -25 24
-149 -1 -208 -11 -27 -23 -48 -27 -48 -5 0 -8 -6 -8 -13 0 -6 -29 -42 -65 -79
-36 -37 -65 -72 -65 -77 0 -5 -10 -18 -22 -28 -13 -10 -45 -43 -72 -73 -27
-30 -72 -82 -102 -115 -29 -33 -82 -91 -116 -129 -35 -37 -67 -75 -72 -83 -5
-9 -29 -37 -55 -62 -25 -25 -62 -66 -81 -91 -19 -24 -51 -61 -70 -80 -19 -20
-57 -62 -85 -94 -27 -32 -63 -73 -80 -91 -59 -66 -144 -161 -177 -200 -114
-136 -193 -185 -297 -185 -58 0 -135 35 -190 86 -14 13 -29 24 -33 24 -3 0
-20 12 -36 28 -16 15 -55 47 -87 72 -31 25 -66 53 -76 62 -11 10 -22 18 -25
18 -3 0 -11 6 -18 13 -38 36 -77 67 -85 67 -5 0 -11 4 -13 8 -1 4 -23 23 -48
42 -25 19 -47 37 -50 40 -3 3 -25 21 -50 40 -25 19 -52 42 -61 52 -9 10 -20
18 -24 18 -11 0 -93 76 -127 119 -10 12 -18 25 -18 30 0 5 -6 11 -12 13 -19 7
-17 167 2 204 26 50 105 134 127 134 6 0 13 6 16 13 2 8 32 12 102 12 70 0
100 -4 103 -12 2 -7 9 -13 16 -13 7 0 25 -11 40 -25 15 -14 30 -25 33 -25 3 0
22 -15 43 -32 55 -49 81 -70 122 -101 21 -15 48 -36 60 -46 35 -30 64 -54 95
-78 15 -12 39 -31 52 -42 13 -12 28 -21 33 -21 5 0 21 -13 35 -30 13 -16 34
-30 45 -30 18 0 68 42 68 57 0 3 8 13 18 22 18 16 45 46 187 207 38 43 90 99
114 124 24 25 55 61 70 79 14 19 54 64 88 100 35 37 63 69 63 72 0 3 24 30 53
60 28 30 63 70 77 87 14 18 49 56 77 85 29 29 53 56 53 60 0 19 191 197 210
197 11 0 20 5 20 10 0 6 37 10 90 10 53 0 90 -4 90 -10z"/>
<path d="M3110 3340 c-8 -5 -23 -10 -34 -10 -19 0 -151 -126 -198 -190 -14
-19 -43 -54 -64 -76 -59 -63 -159 -174 -195 -216 -17 -21 -34 -38 -38 -38 -3
0 -22 15 -42 33 -99 88 -193 157 -212 157 -10 0 -17 5 -17 10 0 6 -13 10 -30
10 -16 0 -30 -4 -30 -10 0 -5 -11 -10 -25 -10 -14 0 -25 -4 -25 -10 0 -5 -6
-10 -14 -10 -31 0 -56 -55 -56 -123 0 -65 0 -65 52 -116 28 -28 55 -51 60 -51
4 0 25 -16 45 -35 20 -19 40 -35 44 -35 3 0 19 -11 35 -25 16 -14 54 -45 84
-68 30 -23 61 -48 68 -54 21 -20 142 -17 172 4 14 9 27 20 30 24 3 4 32 37 65
74 33 38 66 77 74 88 7 10 35 40 60 66 26 25 56 58 68 73 22 29 124 144 206
231 27 29 57 70 68 91 20 42 26 116 9 116 -5 0 -10 9 -10 19 0 21 -51 65 -85
73 -11 3 -27 8 -35 12 -8 3 -22 1 -30 -4z"/>
<path d="M3595 3010 c-3 -5 -13 -10 -22 -10 -9 0 -31 -16 -49 -36 l-34 -35 0
-141 c0 -114 3 -145 17 -169 10 -16 23 -29 30 -29 7 0 13 -3 13 -7 0 -30 60
-33 747 -33 455 0 693 3 693 10 0 6 6 10 13 10 18 0 64 49 76 83 16 42 14 231
-3 270 -15 36 -58 77 -80 77 -8 0 -18 5 -21 10 -4 7 -245 10 -690 10 -445 0
-686 -3 -690 -10z"/>
</g>
</svg>
