<?xml version="1.0" encoding="UTF-8" standalone="no" ?>
<!DOCTYPE svg PUBLIC "-//W3C//DTD SVG 1.1//EN" "http://www.w3.org/Graphics/SVG/1.1/DTD/svg11.dtd">
<svg xmlns="http://www.w3.org/2000/svg" xmlns:xlink="http://www.w3.org/1999/xlink" version="1.1" width="350" height="350" viewBox="0 0 350 350" xml:space="preserve">
<desc>Created with Fabric.js 1.7.22</desc>
<defs>
</defs>
<g id="icon" style="stroke: none; stroke-width: 1; stroke-dasharray: none; stroke-linecap: butt; stroke-linejoin: miter; stroke-miterlimit: 10; fill: none; fill-rule: nonzero; opacity: 1;" transform="translate(-1.9444444444444287 -1.9444444444444287) scale(3.89 3.89)" >
	<path d="M 89 73.493 h -3.679 V 28.389 c 0 -3.483 -2.834 -6.317 -6.317 -6.317 H 65.49 c -0.553 0 -1 0.448 -1 1 s 0.447 1 1 1 h 13.514 c 2.381 0 4.317 1.937 4.317 4.317 v 45.104 H 50.836 H 39.164 H 6.679 V 28.389 c 0 -2.38 1.937 -4.317 4.32 -4.317 l 13.867 -0.04 c 0.552 -0.001 0.999 -0.451 0.997 -1.003 c -0.001 -0.551 -0.449 -0.997 -1 -0.997 c -0.001 0 -0.002 0 -0.003 0 l -13.864 0.04 c -3.483 0 -6.317 2.834 -6.317 6.317 v 45.104 H 1 c -0.552 0 -1 0.447 -1 1 v 0.908 c 0 3.323 2.703 6.026 6.026 6.026 h 33.138 h 11.672 h 33.138 c 3.323 0 6.026 -2.703 6.026 -6.026 v -0.908 C 90 73.94 89.553 73.493 89 73.493 z M 6.026 79.428 c -2.189 0 -3.976 -1.757 -4.025 -3.935 h 2.678 h 34.485 v 3.935 H 6.026 z M 41.164 79.428 v -3.935 h 7.672 v 3.935 H 41.164 z M 83.974 79.428 H 50.836 v -3.935 h 34.485 h 2.678 C 87.95 77.671 86.163 79.428 83.974 79.428 z" style="stroke: none; stroke-width: 1; stroke-dasharray: none; stroke-linecap: butt; stroke-linejoin: miter; stroke-miterlimit: 10; fill: rgb(0,0,0); fill-rule: nonzero; opacity: 1;" transform=" matrix(1 0 0 1 0 0) " stroke-linecap="round" />
	<path d="M 78.888 69.493 c 0.553 0 1 -0.447 1 -1 V 30.715 c 0 -1.569 -1.276 -2.846 -2.846 -2.846 h -6.405 c -0.553 0 -1 0.448 -1 1 s 0.447 1 1 1 h 6.405 c 0.467 0 0.846 0.379 0.846 0.846 v 37.778 C 77.888 69.046 78.335 69.493 78.888 69.493 z" style="stroke: none; stroke-width: 1; stroke-dasharray: none; stroke-linecap: butt; stroke-linejoin: miter; stroke-miterlimit: 10; fill: rgb(0,0,0); fill-rule: nonzero; opacity: 1;" transform=" matrix(1 0 0 1 0 0) " stroke-linecap="round" />
	<path d="M 12.958 27.869 c -1.569 0 -2.846 1.276 -2.846 2.846 v 37.778 c 0 0.553 0.448 1 1 1 s 1 -0.447 1 -1 V 30.715 c 0 -0.466 0.379 -0.846 0.846 -0.846 h 6.405 c 0.552 0 1 -0.448 1 -1 s -0.448 -1 -1 -1 H 12.958 z" style="stroke: none; stroke-width: 1; stroke-dasharray: none; stroke-linecap: butt; stroke-linejoin: miter; stroke-miterlimit: 10; fill: rgb(0,0,0); fill-rule: nonzero; opacity: 1;" transform=" matrix(1 0 0 1 0 0) " stroke-linecap="round" />
	<path d="M 25.5 41.87 c 0 10.752 8.748 19.5 19.5 19.5 c 3.397 0 6.744 -0.888 9.677 -2.566 c 2.023 -1.159 3.81 -2.657 5.309 -4.454 c 2.911 -3.493 4.515 -7.926 4.515 -12.48 c 0 -10.752 -8.748 -19.5 -19.5 -19.5 C 34.248 22.37 25.5 31.117 25.5 41.87 z M 62.5 41.87 c 0 4.087 -1.438 8.065 -4.051 11.199 c -1.347 1.613 -2.95 2.959 -4.767 3.999 C 51.052 58.574 48.05 59.37 45 59.37 c -9.649 0 -17.5 -7.851 -17.5 -17.5 c 0 -9.649 7.851 -17.5 17.5 -17.5 S 62.5 32.22 62.5 41.87 z" style="stroke: none; stroke-width: 1; stroke-dasharray: none; stroke-linecap: butt; stroke-linejoin: miter; stroke-miterlimit: 10; fill: rgb(0,0,0); fill-rule: nonzero; opacity: 1;" transform=" matrix(1 0 0 1 0 0) " stroke-linecap="round" />
	<path d="M 34.442 40.87 h -1.144 c -0.552 0 -1 0.448 -1 1 s 0.448 1 1 1 h 1.144 c 0.552 0 1 -0.448 1 -1 S 34.995 40.87 34.442 40.87 z" style="stroke: none; stroke-width: 1; stroke-dasharray: none; stroke-linecap: butt; stroke-linejoin: miter; stroke-miterlimit: 10; fill: rgb(0,0,0); fill-rule: nonzero; opacity: 1;" transform=" matrix(1 0 0 1 0 0) " stroke-linecap="round" />
	<path d="M 55.92 42.87 h 1.144 c 0.553 0 1 -0.448 1 -1 s -0.447 -1 -1 -1 H 55.92 c -0.553 0 -1 0.448 -1 1 S 55.367 42.87 55.92 42.87 z" style="stroke: none; stroke-width: 1; stroke-dasharray: none; stroke-linecap: butt; stroke-linejoin: miter; stroke-miterlimit: 10; fill: rgb(0,0,0); fill-rule: nonzero; opacity: 1;" transform=" matrix(1 0 0 1 0 0) " stroke-linecap="round" />
	<path d="M 45.181 51.608 c -0.552 0 -1 0.447 -1 1 v 1.144 c 0 0.553 0.448 1 1 1 s 1 -0.447 1 -1 v -1.144 C 46.182 52.056 45.733 51.608 45.181 51.608 z" style="stroke: none; stroke-width: 1; stroke-dasharray: none; stroke-linecap: butt; stroke-linejoin: miter; stroke-miterlimit: 10; fill: rgb(0,0,0); fill-rule: nonzero; opacity: 1;" transform=" matrix(1 0 0 1 0 0) " stroke-linecap="round" />
	<path d="M 44.181 29.988 v 1.144 c 0 0.552 0.448 1 1 1 s 1 -0.448 1 -1 v -1.144 c 0 -0.552 -0.448 -1 -1 -1 S 44.181 29.436 44.181 29.988 z" style="stroke: none; stroke-width: 1; stroke-dasharray: none; stroke-linecap: butt; stroke-linejoin: miter; stroke-miterlimit: 10; fill: rgb(0,0,0); fill-rule: nonzero; opacity: 1;" transform=" matrix(1 0 0 1 0 0) " stroke-linecap="round" />
	<path d="M 45 38.525 c -0.375 0 -0.731 0.076 -1.068 0.191 l -5.275 -7.214 c -0.325 -0.445 -0.951 -0.543 -1.397 -0.217 c -0.446 0.326 -0.543 0.952 -0.217 1.397 l 5.272 7.211 c -0.41 0.555 -0.661 1.235 -0.661 1.976 c 0 1.845 1.5 3.345 3.345 3.345 c 1.845 0 3.345 -1.5 3.345 -3.345 c 0 -0.115 -0.023 -0.224 -0.034 -0.336 l 3.851 -1.657 c 0.507 -0.218 0.741 -0.806 0.523 -1.313 c -0.219 -0.509 -0.811 -0.742 -1.314 -0.523 l -3.85 1.656 C 46.907 38.985 46.011 38.525 45 38.525 z M 45 43.215 c -0.742 0 -1.345 -0.604 -1.345 -1.345 s 0.603 -1.345 1.345 -1.345 s 1.345 0.603 1.345 1.345 S 45.742 43.215 45 43.215 z" style="stroke: none; stroke-width: 1; stroke-dasharray: none; stroke-linecap: butt; stroke-linejoin: miter; stroke-miterlimit: 10; fill: rgb(0,0,0); fill-rule: nonzero; opacity: 1;" transform=" matrix(1 0 0 1 0 0) " stroke-linecap="round" />
	<path d="M 20.448 41.87 c 0 13.539 11.014 24.552 24.552 24.552 S 69.552 55.408 69.552 41.87 c 0 -12.209 -8.958 -22.361 -20.646 -24.238 v -2.739 c 1.374 -0.368 2.395 -1.611 2.395 -3.1 c 0 -1.776 -1.445 -3.221 -3.222 -3.221 h -6.157 c -1.776 0 -3.221 1.445 -3.221 3.221 c 0 1.489 1.02 2.732 2.394 3.1 v 2.739 C 29.406 19.509 20.448 29.661 20.448 41.87 z M 67.552 41.87 c 0 12.435 -10.116 22.552 -22.552 22.552 c -12.435 0 -22.552 -10.117 -22.552 -22.552 S 32.565 19.318 45 19.318 C 57.436 19.318 67.552 29.435 67.552 41.87 z M 40.701 11.793 c 0 -0.673 0.547 -1.221 1.221 -1.221 h 6.157 c 0.674 0 1.222 0.547 1.222 1.221 s -0.548 1.221 -1.222 1.221 h -6.157 C 41.248 13.014 40.701 12.466 40.701 11.793 z M 43.094 15.014 h 3.811 v 2.385 c -0.63 -0.049 -1.263 -0.081 -1.905 -0.081 c -0.642 0 -1.276 0.033 -1.906 0.081 V 15.014 z" style="stroke: none; stroke-width: 1; stroke-dasharray: none; stroke-linecap: butt; stroke-linejoin: miter; stroke-miterlimit: 10; fill: rgb(0,0,0); fill-rule: nonzero; opacity: 1;" transform=" matrix(1 0 0 1 0 0) " stroke-linecap="round" />
</g>
</svg>